<mxfile host="65bd71144e">
    <diagram id="au_H7yoJ1ZAJFuR8r1fB" name="Page-1">
        <mxGraphModel dx="1006" dy="784" grid="1" gridSize="10" guides="1" tooltips="1" connect="1" arrows="1" fold="1" page="1" pageScale="1" pageWidth="850" pageHeight="1100" math="0" shadow="0">
            <root>
                <mxCell id="0"/>
                <mxCell id="1" parent="0"/>
                <mxCell id="2" value="ESP 8266" style="rounded=0;whiteSpace=wrap;html=1;" vertex="1" parent="1">
                    <mxGeometry x="210" y="130" width="120" height="60" as="geometry"/>
                </mxCell>
                <mxCell id="3" value="Motor 1" style="icon;html=1;image=img/clipart/Gear_128x128.png" vertex="1" parent="1">
                    <mxGeometry x="270" y="320" width="60" height="60" as="geometry"/>
                </mxCell>
                <mxCell id="6" value="" style="group" vertex="1" connectable="0" parent="1">
                    <mxGeometry x="495" y="130" width="50" height="200" as="geometry"/>
                </mxCell>
                <mxCell id="4" value="&lt;pre&gt;&lt;br&gt;&lt;/pre&gt;" style="shape=offPageConnector;whiteSpace=wrap;html=1;size=0.3;align=center;" vertex="1" parent="6">
                    <mxGeometry x="5" width="40" height="200" as="geometry"/>
                </mxCell>
                <mxCell id="5" value="&lt;pre style=&quot;font-size: 12px;&quot;&gt;&lt;font style=&quot;font-size: 11px;&quot;&gt;Moisture Sensor 1&lt;/font&gt;&lt;/pre&gt;" style="text;html=1;align=center;verticalAlign=middle;resizable=0;points=[];autosize=1;strokeColor=none;fillColor=none;fontSize=11;rotation=-90;" vertex="1" parent="6">
                    <mxGeometry x="-45" y="50" width="140" height="50" as="geometry"/>
                </mxCell>
                <mxCell id="9" style="edgeStyle=none;html=1;exitX=0.75;exitY=0;exitDx=0;exitDy=0;fontSize=11;fillColor=#a20025;strokeColor=#6F0000;strokeWidth=2;endArrow=oval;endFill=1;startArrow=oval;startFill=1;entryX=0.25;entryY=0;entryDx=0;entryDy=0;" edge="1" parent="1" source="2" target="4">
                    <mxGeometry relative="1" as="geometry">
                        <mxPoint x="509" y="127" as="targetPoint"/>
                        <mxPoint x="300" y="130" as="sourcePoint"/>
                        <Array as="points">
                            <mxPoint x="300" y="80"/>
                            <mxPoint x="509" y="80"/>
                        </Array>
                    </mxGeometry>
                </mxCell>
                <mxCell id="10" style="edgeStyle=none;html=1;exitX=0.5;exitY=0;exitDx=0;exitDy=0;entryX=0.75;entryY=0;entryDx=0;entryDy=0;strokeWidth=2;fontSize=11;startArrow=oval;startFill=1;endArrow=oval;endFill=1;strokeColor=#474747;" edge="1" parent="1" source="2" target="4">
                    <mxGeometry relative="1" as="geometry">
                        <Array as="points">
                            <mxPoint x="270" y="60"/>
                            <mxPoint x="530" y="60"/>
                        </Array>
                    </mxGeometry>
                </mxCell>
            </root>
        </mxGraphModel>
    </diagram>
</mxfile>